<svg width="800" height="600" viewBox="0 0 800 600" fill="none" xmlns="http://www.w3.org/2000/svg">
  <path
    d="M400 300C381.842 346.613 325.58 425 242 425C178.041 425 125.301 376.963 117.891 315C117.614 312.686 29 315 29 308C28.9998 300 96.5 300 117 300C137.5 300 195 300 195 292C195 285 117.614 287.314 117.891 285C125.301 223.037 178.041 175 242 175C325.5 175 381.653 253.777 400 300ZM400 300C418.174 253.42 474.5 175 558 175C621.959 175 674.699 223.037 682.109 285C682.386 287.314 771 285 771 292C771 300 703.5 300 683 300C662.5 300 605 300 605 308C605 315 682.386 312.686 682.109 315C674.699 376.963 621.959 425 558 425C474.5 425 417.982 346.968 400 300Z"
    stroke="black" />
</svg>